PathFileType	4	(X/Y/Z)	RBDS022\RBDS022runT35.trc
DataRate	CameraRate	NumFrames	NumMarkers	Units	OrigDataRate	OrigDataStartFrame	OrigNumFrames
150.000000	150.000000	6	33	mm	150.000000	3375	4500
Frame#	Time	L.ASIS			L.Heel.Bottom			L.Heel.Lateral			L.Heel.Top			L.Iliac.Crest			L.MT1			L.MT5			L.PSIS			L.Shank.Bottom.Lateral			L.Shank.Bottom.Medial			L.Shank.Top.Lateral			L.Shank.Top.Medial			L.Thigh.Bottom.Lateral			L.Thigh.Bottom.Medial			L.Thigh.Top.Lateral			L.Thigh.Top.Medial			R.ASIS			R.ASY			R.Heel.Bottom			R.Heel.Lateral			R.Heel.Top			R.Iliac.Crest			R.MT1			R.MT5			R.PSIS			R.Shank.Bottom.Lateral			R.Shank.Bottom.Medial			R.Shank.Top.Lateral			R.Shank.Top.Medial			R.Thigh.Bottom.Lateral			R.Thigh.Bottom.Medial			R.Thigh.Top.Lateral			R.Thigh.Top.Medial			
		X1	Y1	Z1	X2	Y2	Z2	X3	Y3	Z3	X4	Y4	Z4	X5	Y5	Z5	X6	Y6	Z6	X7	Y7	Z7	X8	Y8	Z8	X9	Y9	Z9	X10	Y10	Z10	X11	Y11	Z11	X12	Y12	Z12	X13	Y13	Z13	X14	Y14	Z14	X15	Y15	Z15	X16	Y16	Z16	X17	Y17	Z17	X18	Y18	Z18	X19	Y19	Z19	X20	Y20	Z20	X21	Y21	Z21	X22	Y22	Z22	X23	Y23	Z23	X24	Y24	Z24	X25	Y25	Z25	X26	Y26	Z26	X27	Y27	Z27	X28	Y28	Z28	X29	Y29	Z29	X30	Y30	Z30	X31	Y31	Z31	X32	Y32	Z32	X33	Y33	Z33	

3376	22.5	2254.321997854501	944.3911890873584	916.4952665807032	2222.801259090552	24.05588035971947	1038.235370178953	2249.173434070603	46.97908898658424	991.0191379183414	2233.201839734782	68.76821906714355	1040.825269465087	2164.69402937429	1012.851290625615	882.888616756317	2446.158635508733	43.21703705067927	1051.264014195123	2399.249751017019	34.32202272677414	942.9591264145073	2097.972862147151	965.9375541655897	1016.848097583894	2294.912520174451	158.7302683759239	958.3459155352433	2254.677531796935	170.154805167726	994.8096354051129	2292.876441043749	235.3969183620717	934.0185852865332	2254.881788903852	247.1528957149606	970.4557070949687	2305.834607713557	588.6225000065814	886.6714513570176	2247.384515587582	567.3191511752169	924.6694900744193	2254.297661243967	682.2713294501787	861.5746249702298	2200.578453278345	663.5843914632193	900.9917107859726	2289.191162230447	928.7961782525964	1151.271885458914	1801.241303349865	269.6969916391088	1105.466853593441	1739.147430075226	450.2756370660019	1074.239578835959	1756.711001733524	426.4967880286877	1123.566287826678	1783.149660388008	445.0532830428671	1077.679844488374	2243.333690529646	996.3079047972818	1197.796477320356	1760.881826109662	238.1565268022763	1058.680094932838	1746.140337341774	270.5472372218202	1167.103198250786	2119.280284019611	962.8649930435777	1100.107021714086	1872.701796491677	411.5431095720469	1148.969008265603	1874.156435385981	446.7707383316579	1111.648409038525	1953.705684549283	428.2771284078956	1166.472035810195	1950.493184278502	466.8209158909359	1130.039595168982	2221.822150806527	538.811707370827	1196.863456323318	2160.381878938731	542.5701596117474	1160.792176957767	2217.677808236966	648.0259080494906	1215.730511088828	2155.313574830124	649.8498328782333	1186.453636491713	
3377	22.50666666666667	2252.350048857772	940.9837401038562	915.082586921564	2199.649032819242	25.21664335695767	1038.035855605352	2226.441341683164	48.22056900125403	991.0011041462107	2210.945229691485	69.93002972067679	1041.00550188045	2161.318795638275	1008.145719148833	882.9713022216284	2423.873929403831	40.69682328259853	1051.671056890583	2376.533981669593	33.911024793062	942.9127067999082	2096.413048021945	962.3522767076493	1017.585964640033	2278.285021929384	158.577708884468	958.8376323627981	2238.031262652989	172.0387989350525	994.6684407088369	2280.004002772482	235.2190173544818	934.0549930306748	2242.291465905296	248.8973680882069	970.122563926402	2303.721419025305	585.5954291052446	885.5462679482929	2245.199301652028	564.4237482866159	923.5324168973165	2252.516509494514	679.3675246370666	860.3935653702778	2198.554470551559	660.7266006998113	899.5805687189396	2288.127839647037	924.1638053595946	1150.038601212337	1816.348160430861	269.1912213903694	1107.815863815625	1753.311869309592	449.226974367365	1074.92580318739	1771.763653678968	426.3932384060001	1124.421995668683	1797.346238640954	444.1353764237779	1077.843393091609	2243.909860356945	990.0150061535098	1197.801345384868	1775.242627673619	236.7261361901729	1062.461796867161	1762.392372817215	271.0221745012201	1170.538105976631	2117.870475285582	958.8158358951883	1100.351011975683	1887.991847735381	410.5939518491312	1149.518718376178	1889.811560872937	445.5749954327341	1111.955659691257	1969.210016003043	426.5138670123656	1166.761007331454	1966.428017397433	464.8301980414093	1130.029804257788	2232.614179129148	535.0042370207473	1196.870537435612	2171.02730578716	536.3495748652325	1160.901180773252	2224.641790540057	644.0532649646173	1215.317212463258	2162.200235370172	643.4944962742155	1186.234836726002	
3378	22.51333333333334	2250.497810796219	938.0146548269407	913.7828450715015	2176.58747237636	26.26554086466222	1037.827054154293	2203.611181903591	49.38981905901442	990.8795419683248	2188.455730674973	70.9897476032294	1041.044137303994	2158.244914197524	1004.188955248212	882.9614659142139	2401.243349372883	39.40138780697252	1051.800837077984	2353.56607750196	34.17117174036822	942.7320553158504	2094.853795770669	959.456461645239	1017.952611550729	2260.874371163834	158.6749202623316	959.2357498380163	2220.782618425838	174.065700553334	994.5559422689398	2266.175094572491	235.1478757631615	934.1108721085446	2228.897023881665	250.6498176579032	969.8953878606861	2300.656637516387	582.5782685222093	884.5908745080264	2241.971229309221	561.767305993878	922.531005976048	2250.147526906218	676.6460479954261	859.3281246918302	2195.867904229862	658.2571708862548	898.2699460750281	2286.769194367775	920.0578376116715	1148.917833652336	1832.809792589277	267.3341393809353	1110.297204572228	1767.403536073708	446.2468645167907	1075.983971516513	1787.021909386278	424.4981419758134	1125.576655555355	1811.463626025995	441.5824875817062	1078.264521833247	2244.171910768772	984.6342930777926	1197.708346249699	1791.151276609125	233.657612754526	1066.486166542193	1780.168008657952	269.7525614895364	1174.212714057037	2116.2889011864	955.5420141247498	1100.342602692768	1903.639179857852	408.6880914189926	1150.2161882823	1905.571200113888	443.4574085767187	1112.426009053027	1985.012130015159	424.2789062123332	1167.103221169247	1982.372950758351	462.3765347123542	1130.107907118719	2243.747210304857	532.2346241552145	1196.798035524838	2181.972333249977	531.0799288330979	1161.168945982605	2231.864526188268	640.9357953573658	1214.860346073423	2169.316557921899	637.9098400289465	1186.267427985351	
3379	22.52	2248.823341992274	935.5220134645232	912.6391327379743	2153.609053698621	27.18676070291119	1037.661675986683	2180.717223482135	50.44305867820773	990.7191622986915	2165.7946142353	71.93071393793132	1041.007466810175	2155.602739685733	1001.11275801516	882.8407114269305	2378.376819487965	38.99629098767155	1051.740856247493	2330.420725616108	34.83437169735562	942.494169579912	2093.327795102847	957.2712027511658	1017.916569470723	2242.726569467136	158.9022820672963	959.5695294987694	2202.95548394563	176.084939439991	994.5026416720531	2251.380311404732	235.0790302736326	934.2065579567916	2214.658805353959	252.2787584398001	969.7859004267029	2296.520683136718	579.5551966023615	883.8637918419738	2237.571394808021	559.3624391826007	921.7141966098283	2247.108632258982	674.1007778846317	858.4294419745204	2192.443732498769	656.2088448481509	897.128605872526	2285.148603551897	916.5985393642979	1147.959766685366	1850.528840249648	264.1648983630251	1112.827702112654	1781.364176102309	441.3656598526387	1077.430272661287	1802.380316812778	420.8103204303851	1127.026370372492	1825.436808280545	437.434629917815	1078.97511387635	2243.930705778705	980.2987878829921	1197.52556093607	1808.559117253842	229.0268575332113	1070.604136681183	1799.322706397509	266.747509188994	1177.996529613921	2114.569921500708	953.0380101236652	1100.059049263248	1919.536068810508	405.8568301592574	1151.056312660358	1921.302095254466	440.4640822968434	1113.074219864866	2000.994562559516	421.6385991000409	1167.489541549981	1998.183923452081	459.541188163357	1130.287702583049	2255.135237892798	530.5998437511304	1196.615500033674	2193.171061492967	526.8772025098509	1161.50945986364	2239.274233270093	638.7655642386202	1214.358248232709	2176.626377990161	633.2001315161565	1186.488017477838	
3380	22.52666666666667	2247.37304725831	933.5139115520453	911.687618473547	2130.672597447751	27.99767312062089	1037.577520747351	2157.765123932724	51.3732705910496	990.5760841946761	2142.996149303453	72.76657245882855	1040.954317475322	2153.507567803431	998.9917268107017	882.5923097970923	2355.34514951561	39.14708803068928	1051.584713580509	2307.14299493607	35.66477514415356	942.2700588135076	2091.868876245523	955.7965910014121	1017.477743049294	2223.897754387138	159.1744706230126	959.8681653251147	2184.571464210752	177.9912741100565	994.5270772405005	2235.636388660716	234.9471976103773	934.3537914077777	2199.556480308186	253.7020120204049	969.7917840292707	2291.243867507002	576.5343080395852	883.3925758137201	2231.931038684565	557.2309112865989	921.1056379106827	2243.346636034601	671.7374998545157	857.7281960734205	2188.24192553154	654.6109206237325	896.2041438020613	2283.313196285135	913.8811575268663	1147.20447431906	1869.404940876926	259.7442827963418	1115.327321457066	1795.188660377791	434.6281273837656	1079.256718219502	1817.773836140126	415.3493764158426	1128.751996532177	1839.250860595284	431.739881025772	1079.992989183657	2243.025436393096	977.0710972966765	1197.268432213361	1827.413633008496	222.9389325674819	1074.664031796625	1819.708516760372	262.054795382265	1181.756190581192	2112.756941865712	951.276003398439	1099.498322926377	1935.591018938712	402.1356009371129	1152.02715235046	1936.895206841193	436.6344051128415	1113.903870776865	2017.045031239628	418.6536261791524	1167.912165017302	2013.732203746785	456.3889406018721	1130.577533126991	2266.650168974862	530.1715473246506	1196.300825576016	2204.54311263698	523.8397052338014	1161.828562271072	2246.766461244177	637.6143964541371	1213.810032744628	2184.065994623832	629.4579756688548	1186.814588972668	
3381	22.53333333333333	2246.178614165678	931.9765853549308	910.9521867470373	2107.723931700144	28.75038330237143	1037.59560450569	2134.746978530002	52.21252182443145	990.4926704141319	2120.080411872555	73.5436587834522	1040.930408595152	2152.052144843003	997.8355134342064	882.2010555421188	2332.188746931796	39.55902095273413	1051.417799700684	2283.757940902557	36.4807719316925	942.1162418186215	2090.510459263932	955.0163459174611	1016.666985134139	2204.456415946175	159.4527568548262	960.1572768714203	2165.65784271614	179.7366459915034	994.6359032280862	2218.988241324269	234.7362441307568	934.5556452586525	2183.596594500445	254.8963531193629	969.9001263852683	2284.812946171803	573.5548613110332	883.1749207472333	2225.047059137351	555.4096851942792	920.7031548451613	2238.842899402581	669.5807869790065	857.2344770867928	2183.261609182019	653.4933751182248	895.5194200065317	2281.321117570128	911.969945480124	1146.67662265231	1889.339160198008	254.156740332494	1117.720928948756	1808.918644595969	426.0921118166692	1081.432729816644	1833.178217579183	408.1558341010603	1130.721439171504	1852.934978815858	424.5520926998162	1081.320292420901	2241.345710828081	974.9437992068013	1196.957559749681	1847.658805740509	215.527959581479	1078.518885625267	1841.184736111074	255.7604603163988	1185.362534420268	2110.899491247818	950.2159893484767	1098.680717647109	1951.731401391631	397.5645684831732	1153.110550031873	1952.270073941909	432.0015613149372	1114.907075053568	2033.061228649143	415.3757767232743	1168.365425981212	2028.910835919663	452.9645200152519	1130.980313983267	2278.132470282235	530.9888042851676	1195.843575551705	2215.976645535052	522.0393342503859	1162.037713411747	2254.214623166812	637.5275904692779	1213.216620008395	2191.548085058155	626.7575482850308	1187.158201822049	
